<?xml version="1.0" encoding="UTF-8" standalone="no"?>
<!-- Created with Inkscape (http://www.inkscape.org/) -->

<svg
   width="128"
   height="128"
   viewBox="0 0 33.866667 33.866667"
   version="1.1"
   id="svg3420"
   inkscape:version="1.1.1 (c3084ef, 2021-09-22)"
   sodipodi:docname="SwitchApp.svg"
   xmlns:inkscape="http://www.inkscape.org/namespaces/inkscape"
   xmlns:sodipodi="http://sodipodi.sourceforge.net/DTD/sodipodi-0.dtd"
   xmlns="http://www.w3.org/2000/svg"
   xmlns:svg="http://www.w3.org/2000/svg"
   xmlns:rdf="http://www.w3.org/1999/02/22-rdf-syntax-ns#"
   xmlns:cc="http://creativecommons.org/ns#"
   xmlns:dc="http://purl.org/dc/elements/1.1/">
  <defs
     id="defs3414">
    <inkscape:path-effect
       effect="fillet_chamfer"
       id="path-effect460"
       is_visible="true"
       lpeversion="1"
       satellites_param="F,0,0,1,0,7.9375,0,1 @ F,0,0,1,0,7.9375,0,1 @ F,0,0,1,0,7.9375,0,1 @ F,0,0,1,0,7.9375,0,1"
       unit="px"
       method="auto"
       mode="F"
       radius="30"
       chamfer_steps="1"
       flexible="false"
       use_knot_distance="true"
       apply_no_radius="true"
       apply_with_radius="true"
       only_selected="false"
       hide_knots="false" />
    <filter
       style="color-interpolation-filters:sRGB;"
       inkscape:label="Drop Shadow"
       id="filter1026"
       x="-0.033074271"
       y="-0.033074268"
       width="1.0661485"
       height="1.0799295">
      <feFlood
         flood-opacity="0.498039"
         flood-color="rgb(0,0,0)"
         result="flood"
         id="feFlood1016" />
      <feComposite
         in="flood"
         in2="SourceGraphic"
         operator="in"
         result="composite1"
         id="feComposite1018" />
      <feGaussianBlur
         in="composite1"
         stdDeviation="0.5"
         result="blur"
         id="feGaussianBlur1020" />
      <feOffset
         dx="0"
         dy="0.5"
         result="offset"
         id="feOffset1022" />
      <feComposite
         in="SourceGraphic"
         in2="offset"
         operator="over"
         result="composite2"
         id="feComposite1024" />
    </filter>
  </defs>
  <sodipodi:namedview
     id="base"
     pagecolor="#ffffff"
     bordercolor="#666666"
     borderopacity="1.0"
     inkscape:pageopacity="0.0"
     inkscape:pageshadow="2"
     inkscape:zoom="1"
     inkscape:cx="21.5"
     inkscape:cy="10"
     inkscape:document-units="mm"
     inkscape:current-layer="layer1"
     showgrid="false"
     units="px"
     width="128px"
     showguides="true"
     inkscape:guide-bbox="true"
     inkscape:locked="false"
     inkscape:window-width="1574"
     inkscape:window-height="942"
     inkscape:window-x="346"
     inkscape:window-y="28"
     inkscape:window-maximized="0"
     inkscape:pagecheckerboard="0">
    <inkscape:grid
       type="xygrid"
       id="grid4795" />
  </sodipodi:namedview>
  <metadata
     id="metadata3417">
    <rdf:RDF>
      <cc:Work
         rdf:about="">
        <dc:format>image/svg+xml</dc:format>
        <dc:type
           rdf:resource="http://purl.org/dc/dcmitype/StillImage" />
      </cc:Work>
    </rdf:RDF>
  </metadata>
  <g
     inkscape:label="Calque 1"
     inkscape:groupmode="layer"
     id="layer1"
     transform="translate(0,-263.13333)">
    <path
       style="fill:#e6e6e6;fill-rule:evenodd;stroke-width:0.264583;filter:url(#filter1026)"
       id="rect458"
       width="36.281979"
       height="36.281982"
       x="0.78589219"
       y="262.74039"
       inkscape:path-effect="#path-effect460"
       d="M 8.7233922,262.74039 H 29.130371 a 7.9375,7.9375 45 0 1 7.9375,7.9375 v 20.40698 a 7.9375,7.9375 135 0 1 -7.9375,7.9375 H 8.7233922 a 7.9375,7.9375 45 0 1 -7.93750001,-7.9375 v -20.40698 a 7.9375,7.9375 135 0 1 7.93750001,-7.9375 z"
       sodipodi:type="rect"
       transform="matrix(0.88213414,0,0,0.87135515,0.6433332,35.107678)" />
    <path
       style="fill:#999999;fill-opacity:1;fill-rule:evenodd;stroke:none;stroke-width:0.289941px;stroke-linecap:butt;stroke-linejoin:miter;stroke-opacity:1"
       d="m 16.8602,272.35736 c -0.201606,0.004 -0.594039,0.0235 -0.594039,0.0849 v 5.2e-4 c -0.164132,0.0661 -0.427548,0.32108 -0.427548,0.32108 l -3.791881,3.27711 c 0,0 -3.2424582,-0.0413 -4.789117,-0.0522 -0.4049283,0.12417 -0.5835619,0.28228 -0.7509011,0.72486 -6.09e-4,0.12822 -0.00694,1.71743 -0.01359,3.353 0.00665,1.63557 0.012984,3.22478 0.01359,3.353 0.1673392,0.44258 0.3459728,0.60069 0.7509011,0.72485 1.5466588,-0.0109 4.789117,-0.052 4.789117,-0.052 l 3.791881,3.27713 c 0,0 0.263416,0.25501 0.427548,0.32108 v 5.2e-4 c 0,0.0614 0.392433,0.0805 0.594039,0.0849 0.200887,0.003 0.364125,-0.24067 0.364125,-0.24067 v -7.46882 -7.4688 c 0,0 -0.163238,-0.24418 -0.364125,-0.24068 z"
       id="path3487"
       inkscape:connector-curvature="0" />
    <g
       aria-label="➜"
       style="font-style:normal;font-weight:normal;font-size:10.5833px;line-height:6.61458px;font-family:sans-serif;letter-spacing:0px;word-spacing:0px;fill:#999999;fill-opacity:1;stroke:none;stroke-width:0.264583px;stroke-linecap:butt;stroke-linejoin:miter;stroke-opacity:1"
       id="text4803"
       transform="matrix(-0.96653065,0,0,0.96653065,50.937023,25.259725)">
      <path
         d="m 30.485994,262.88115 q -0.697632,-0.77514 -0.81132,-1.03352 -0.10852,-0.25839 -0.10852,-0.42892 0,-0.32039 0.222208,-0.55294 0.222209,-0.23254 0.54777,-0.23254 0.211874,0 0.372071,0.0982 0.165364,0.0982 0.490926,0.50643 l 1.912028,2.39262 -1.927531,2.41329 q -0.325562,0.41341 -0.480591,0.50126 -0.149862,0.0827 -0.356567,0.0827 -0.335897,0 -0.558106,-0.23255 -0.222208,-0.23254 -0.222208,-0.55294 0,-0.23254 0.113688,-0.46508 0.118856,-0.23772 0.806152,-0.98186 h -5.131469 q -0.759644,0 -1.018026,-0.23254 -0.253215,-0.23254 -0.253215,-0.53227 0,-0.26355 0.227377,-0.50643 0.232544,-0.24288 1.043864,-0.24288 z"
         style="fill:#999999;stroke-width:0.264583px"
         id="path4805"
         inkscape:connector-curvature="0" />
    </g>
  </g>
</svg>
